<?xml version="1.0" encoding="UTF-8"?>
<svg xmlns="http://www.w3.org/2000/svg" xmlns:xlink="http://www.w3.org/1999/xlink" width="30px" height="30px" viewBox="0 0 30 30" version="1.1">
<g id="surface1">
<path style="fill-rule:nonzero;fill:rgb(45.882353%,51.372549%,56.470588%);fill-opacity:1;stroke-width:1;stroke-linecap:butt;stroke-linejoin:miter;stroke:rgb(45.882353%,51.372549%,56.470588%);stroke-opacity:1;stroke-miterlimit:4;" d="M 16 1.375 C 7.72 1.375 1.005 8.09 1.005 16.37 C 1.005 22.955 5.25 28.55 11.15 30.565 L 11.26 30.595 C 12.01 30.74 12.285 30.275 12.285 29.875 C 12.285 29.52 12.27 28.575 12.265 27.325 C 8.095 28.23 7.215 25.315 7.215 25.315 C 6.925 24.39 6.335 23.63 5.56 23.13 L 5.545 23.12 C 4.185 22.19 5.65 22.21 5.65 22.21 C 6.635 22.35 7.465 22.93 7.94 23.74 L 7.945 23.755 C 8.5 24.75 9.545 25.415 10.745 25.415 C 11.325 25.415 11.865 25.26 12.33 24.995 L 12.315 25 C 12.385 24.21 12.735 23.515 13.26 22.995 L 13.265 22.995 C 9.935 22.62 6.43 21.33 6.43 15.585 C 6.43 15.56 6.43 15.53 6.43 15.495 C 6.43 13.975 7.02 12.59 7.98 11.56 L 7.975 11.565 C 7.77 11.02 7.655 10.395 7.655 9.74 C 7.655 8.965 7.82 8.225 8.12 7.56 L 8.105 7.595 C 8.105 7.595 9.36 7.19 12.23 9.13 C 13.355 8.81 14.645 8.625 15.98 8.625 C 17.31 8.625 18.605 8.81 19.825 9.155 L 19.725 9.13 C 22.575 7.19 23.83 7.595 23.83 7.595 C 24.115 8.235 24.285 8.985 24.285 9.77 C 24.285 10.415 24.175 11.03 23.97 11.6 L 23.98 11.565 C 24.935 12.595 25.52 13.98 25.52 15.5 C 25.52 15.53 25.52 15.56 25.52 15.59 L 25.52 15.585 C 25.52 21.345 22.015 22.615 18.675 22.985 C 19.31 23.63 19.7 24.515 19.7 25.495 C 19.7 25.585 19.695 25.68 19.69 25.77 L 19.69 25.76 C 19.69 27.765 19.67 29.38 19.67 29.865 C 19.67 30.26 19.93 30.725 20.7 30.575 C 26.73 28.55 30.995 22.95 30.995 16.35 C 30.995 8.08 24.285 1.375 16.015 1.375 C 16.01 1.375 16.005 1.375 15.995 1.375 Z M 16 1.375 " transform="matrix(0.78125,0,0,0.78125,2.5,2.5)"/>
</g>
</svg>
