<?xml version="1.0" encoding="UTF-8"?>
<svg xmlns="http://www.w3.org/2000/svg" xmlns:xlink="http://www.w3.org/1999/xlink" width="30px" height="30px" viewBox="0 0 30 30" version="1.1">
<g id="surface1">
<path style=" stroke:none;fill-rule:nonzero;fill:rgb(45.882353%,51.372549%,56.470588%);fill-opacity:1;" d="M 27.5 10.398438 L 27.5 22.5 C 27.5 23.878906 26.378906 25 25 25 L 5 25 C 3.621094 25 2.5 23.878906 2.5 22.5 L 2.5 10.863281 L 5 12.226562 L 14.398438 17.351562 C 14.585938 17.449219 14.789062 17.5 15 17.5 C 15.21875 17.496094 15.4375 17.4375 15.625 17.324219 L 25 11.863281 Z M 27.5 10.398438 "/>
<path style=" stroke:none;fill-rule:nonzero;fill:rgb(45.882353%,51.372549%,56.470588%);fill-opacity:1;" d="M 27.5 7.5 L 25 8.976562 L 15 14.8125 L 5 9.375 L 2.5 8 L 2.5 7.5 C 2.5 6.121094 3.621094 5 5 5 L 25 5 C 26.378906 5 27.5 6.121094 27.5 7.5 Z M 27.5 7.5 "/>
</g>
</svg>
